<mxfile host="app.diagrams.net" agent="Mozilla/5.0 (Windows NT 10.0; Win64; x64) AppleWebKit/537.36 (KHTML, like Gecko) Chrome/131.0.0.0 Safari/537.36 Edg/131.0.0.0" version="25.0.3">
  <diagram id="C5RBs43oDa-KdzZeNtuy" name="Page-1">
    <mxGraphModel dx="3007" dy="1193" grid="1" gridSize="10" guides="1" tooltips="1" connect="1" arrows="1" fold="1" page="1" pageScale="1" pageWidth="827" pageHeight="1169" math="0" shadow="0">
      <root>
        <mxCell id="WIyWlLk6GJQsqaUBKTNV-0" />
        <mxCell id="WIyWlLk6GJQsqaUBKTNV-1" parent="WIyWlLk6GJQsqaUBKTNV-0" />
        <mxCell id="mvioNwK95yMqdUQ73LqQ-36" value="" style="swimlane;fontFamily=Sarabun;fontSource=https%3A%2F%2Ffonts.googleapis.com%2Fcss%3Ffamily%3DSarabun;" parent="WIyWlLk6GJQsqaUBKTNV-1" vertex="1">
          <mxGeometry x="-740" y="60" width="1340" height="2070" as="geometry" />
        </mxCell>
        <mxCell id="JBCHaNcfTczLMrVH9G6V-0" style="edgeStyle=orthogonalEdgeStyle;rounded=0;orthogonalLoop=1;jettySize=auto;html=1;exitX=0.5;exitY=1;exitDx=0;exitDy=0;" parent="mvioNwK95yMqdUQ73LqQ-36" source="mvioNwK95yMqdUQ73LqQ-35" edge="1">
          <mxGeometry relative="1" as="geometry">
            <mxPoint x="320.2758620689656" y="130" as="targetPoint" />
          </mxGeometry>
        </mxCell>
        <mxCell id="mvioNwK95yMqdUQ73LqQ-35" value="&lt;font data-font-src=&quot;https://fonts.googleapis.com/css?family=Sarabun&quot; face=&quot;Sarabun&quot;&gt;Start&lt;/font&gt;" style="ellipse;whiteSpace=wrap;html=1;" parent="mvioNwK95yMqdUQ73LqQ-36" vertex="1">
          <mxGeometry x="255" y="40" width="130" height="30" as="geometry" />
        </mxCell>
        <mxCell id="7Dm9HkWjK3gPopbyqvIh-1" style="edgeStyle=orthogonalEdgeStyle;rounded=0;orthogonalLoop=1;jettySize=auto;html=1;" edge="1" parent="mvioNwK95yMqdUQ73LqQ-36" source="7Dm9HkWjK3gPopbyqvIh-0">
          <mxGeometry relative="1" as="geometry">
            <mxPoint x="320" y="260" as="targetPoint" />
          </mxGeometry>
        </mxCell>
        <mxCell id="7Dm9HkWjK3gPopbyqvIh-0" value="Declare&lt;div&gt;userInput, primeCheck&lt;/div&gt;" style="rounded=0;whiteSpace=wrap;html=1;" vertex="1" parent="mvioNwK95yMqdUQ73LqQ-36">
          <mxGeometry x="210" y="130" width="220" height="60" as="geometry" />
        </mxCell>
        <mxCell id="7Dm9HkWjK3gPopbyqvIh-2" value="i = userInput" style="rounded=0;whiteSpace=wrap;html=1;" vertex="1" parent="mvioNwK95yMqdUQ73LqQ-36">
          <mxGeometry x="260" y="260" width="120" height="60" as="geometry" />
        </mxCell>
        <mxCell id="7Dm9HkWjK3gPopbyqvIh-5" style="edgeStyle=orthogonalEdgeStyle;rounded=0;orthogonalLoop=1;jettySize=auto;html=1;" edge="1" parent="mvioNwK95yMqdUQ73LqQ-36" source="7Dm9HkWjK3gPopbyqvIh-4">
          <mxGeometry relative="1" as="geometry">
            <mxPoint x="320" y="530" as="targetPoint" />
          </mxGeometry>
        </mxCell>
        <mxCell id="7Dm9HkWjK3gPopbyqvIh-61" style="edgeStyle=orthogonalEdgeStyle;rounded=0;orthogonalLoop=1;jettySize=auto;html=1;entryX=0.5;entryY=0;entryDx=0;entryDy=0;" edge="1" parent="mvioNwK95yMqdUQ73LqQ-36" source="7Dm9HkWjK3gPopbyqvIh-4" target="7Dm9HkWjK3gPopbyqvIh-53">
          <mxGeometry relative="1" as="geometry">
            <Array as="points">
              <mxPoint x="620" y="440" />
              <mxPoint x="620" y="1870" />
            </Array>
          </mxGeometry>
        </mxCell>
        <mxCell id="7Dm9HkWjK3gPopbyqvIh-4" value="i &amp;gt; 1" style="rhombus;whiteSpace=wrap;html=1;" vertex="1" parent="mvioNwK95yMqdUQ73LqQ-36">
          <mxGeometry x="280" y="400" width="80" height="80" as="geometry" />
        </mxCell>
        <mxCell id="7Dm9HkWjK3gPopbyqvIh-3" style="edgeStyle=orthogonalEdgeStyle;rounded=0;orthogonalLoop=1;jettySize=auto;html=1;" edge="1" parent="mvioNwK95yMqdUQ73LqQ-36" source="7Dm9HkWjK3gPopbyqvIh-9" target="7Dm9HkWjK3gPopbyqvIh-4">
          <mxGeometry relative="1" as="geometry">
            <mxPoint x="320" y="400" as="targetPoint" />
          </mxGeometry>
        </mxCell>
        <mxCell id="7Dm9HkWjK3gPopbyqvIh-7" style="edgeStyle=orthogonalEdgeStyle;rounded=0;orthogonalLoop=1;jettySize=auto;html=1;" edge="1" parent="mvioNwK95yMqdUQ73LqQ-36" source="7Dm9HkWjK3gPopbyqvIh-6">
          <mxGeometry relative="1" as="geometry">
            <mxPoint x="320" y="650" as="targetPoint" />
          </mxGeometry>
        </mxCell>
        <mxCell id="7Dm9HkWjK3gPopbyqvIh-6" value="primeCheck = true" style="rounded=0;whiteSpace=wrap;html=1;" vertex="1" parent="mvioNwK95yMqdUQ73LqQ-36">
          <mxGeometry x="260" y="560" width="120" height="60" as="geometry" />
        </mxCell>
        <mxCell id="7Dm9HkWjK3gPopbyqvIh-11" style="edgeStyle=orthogonalEdgeStyle;rounded=0;orthogonalLoop=1;jettySize=auto;html=1;" edge="1" parent="mvioNwK95yMqdUQ73LqQ-36" source="7Dm9HkWjK3gPopbyqvIh-8">
          <mxGeometry relative="1" as="geometry">
            <mxPoint x="319" y="720" as="targetPoint" />
          </mxGeometry>
        </mxCell>
        <mxCell id="7Dm9HkWjK3gPopbyqvIh-8" value="" style="ellipse;whiteSpace=wrap;html=1;aspect=fixed;" vertex="1" parent="mvioNwK95yMqdUQ73LqQ-36">
          <mxGeometry x="309" y="650" width="20" height="20" as="geometry" />
        </mxCell>
        <mxCell id="7Dm9HkWjK3gPopbyqvIh-9" value="" style="ellipse;whiteSpace=wrap;html=1;aspect=fixed;" vertex="1" parent="mvioNwK95yMqdUQ73LqQ-36">
          <mxGeometry x="310" y="350" width="20" height="20" as="geometry" />
        </mxCell>
        <mxCell id="7Dm9HkWjK3gPopbyqvIh-10" value="" style="edgeStyle=orthogonalEdgeStyle;rounded=0;orthogonalLoop=1;jettySize=auto;html=1;" edge="1" parent="mvioNwK95yMqdUQ73LqQ-36" source="7Dm9HkWjK3gPopbyqvIh-2" target="7Dm9HkWjK3gPopbyqvIh-9">
          <mxGeometry relative="1" as="geometry">
            <mxPoint x="-420" y="460" as="targetPoint" />
            <mxPoint x="-420" y="380" as="sourcePoint" />
          </mxGeometry>
        </mxCell>
        <mxCell id="7Dm9HkWjK3gPopbyqvIh-44" style="edgeStyle=orthogonalEdgeStyle;rounded=0;orthogonalLoop=1;jettySize=auto;html=1;entryX=0.5;entryY=0;entryDx=0;entryDy=0;" edge="1" parent="mvioNwK95yMqdUQ73LqQ-36" source="7Dm9HkWjK3gPopbyqvIh-12" target="7Dm9HkWjK3gPopbyqvIh-30">
          <mxGeometry relative="1" as="geometry" />
        </mxCell>
        <mxCell id="7Dm9HkWjK3gPopbyqvIh-12" value="j = 2" style="rounded=0;whiteSpace=wrap;html=1;" vertex="1" parent="mvioNwK95yMqdUQ73LqQ-36">
          <mxGeometry x="259" y="720" width="120" height="60" as="geometry" />
        </mxCell>
        <mxCell id="7Dm9HkWjK3gPopbyqvIh-15" style="edgeStyle=orthogonalEdgeStyle;rounded=0;orthogonalLoop=1;jettySize=auto;html=1;" edge="1" parent="mvioNwK95yMqdUQ73LqQ-36" source="7Dm9HkWjK3gPopbyqvIh-14">
          <mxGeometry relative="1" as="geometry">
            <mxPoint x="319" y="1030" as="targetPoint" />
          </mxGeometry>
        </mxCell>
        <mxCell id="7Dm9HkWjK3gPopbyqvIh-58" style="edgeStyle=orthogonalEdgeStyle;rounded=0;orthogonalLoop=1;jettySize=auto;html=1;entryX=1;entryY=0.5;entryDx=0;entryDy=0;" edge="1" parent="mvioNwK95yMqdUQ73LqQ-36" source="7Dm9HkWjK3gPopbyqvIh-14" target="7Dm9HkWjK3gPopbyqvIh-56">
          <mxGeometry relative="1" as="geometry">
            <Array as="points">
              <mxPoint x="550" y="910" />
              <mxPoint x="550" y="1385" />
            </Array>
          </mxGeometry>
        </mxCell>
        <mxCell id="7Dm9HkWjK3gPopbyqvIh-14" value="j * j &amp;lt;= i" style="rhombus;whiteSpace=wrap;html=1;" vertex="1" parent="mvioNwK95yMqdUQ73LqQ-36">
          <mxGeometry x="279" y="870" width="80" height="80" as="geometry" />
        </mxCell>
        <mxCell id="7Dm9HkWjK3gPopbyqvIh-33" style="edgeStyle=orthogonalEdgeStyle;rounded=0;orthogonalLoop=1;jettySize=auto;html=1;" edge="1" parent="mvioNwK95yMqdUQ73LqQ-36" source="7Dm9HkWjK3gPopbyqvIh-16">
          <mxGeometry relative="1" as="geometry">
            <mxPoint x="170" y="960" as="targetPoint" />
          </mxGeometry>
        </mxCell>
        <mxCell id="7Dm9HkWjK3gPopbyqvIh-50" style="edgeStyle=orthogonalEdgeStyle;rounded=0;orthogonalLoop=1;jettySize=auto;html=1;" edge="1" parent="mvioNwK95yMqdUQ73LqQ-36" source="7Dm9HkWjK3gPopbyqvIh-16" target="7Dm9HkWjK3gPopbyqvIh-19">
          <mxGeometry relative="1" as="geometry" />
        </mxCell>
        <mxCell id="7Dm9HkWjK3gPopbyqvIh-51" style="edgeStyle=orthogonalEdgeStyle;rounded=0;orthogonalLoop=1;jettySize=auto;html=1;" edge="1" parent="mvioNwK95yMqdUQ73LqQ-36" source="7Dm9HkWjK3gPopbyqvIh-16">
          <mxGeometry relative="1" as="geometry">
            <mxPoint x="170" y="1070" as="targetPoint" />
            <Array as="points">
              <mxPoint x="319" y="1130" />
              <mxPoint x="170" y="1130" />
            </Array>
          </mxGeometry>
        </mxCell>
        <mxCell id="7Dm9HkWjK3gPopbyqvIh-16" value="i % j == 0" style="rhombus;whiteSpace=wrap;html=1;" vertex="1" parent="mvioNwK95yMqdUQ73LqQ-36">
          <mxGeometry x="279" y="1030" width="80" height="80" as="geometry" />
        </mxCell>
        <mxCell id="7Dm9HkWjK3gPopbyqvIh-45" style="edgeStyle=orthogonalEdgeStyle;rounded=0;orthogonalLoop=1;jettySize=auto;html=1;entryX=0.5;entryY=0;entryDx=0;entryDy=0;" edge="1" parent="mvioNwK95yMqdUQ73LqQ-36" source="7Dm9HkWjK3gPopbyqvIh-30" target="7Dm9HkWjK3gPopbyqvIh-14">
          <mxGeometry relative="1" as="geometry" />
        </mxCell>
        <mxCell id="7Dm9HkWjK3gPopbyqvIh-30" value="" style="ellipse;whiteSpace=wrap;html=1;aspect=fixed;" vertex="1" parent="mvioNwK95yMqdUQ73LqQ-36">
          <mxGeometry x="310" y="820" width="20" height="20" as="geometry" />
        </mxCell>
        <mxCell id="7Dm9HkWjK3gPopbyqvIh-32" style="edgeStyle=orthogonalEdgeStyle;rounded=0;orthogonalLoop=1;jettySize=auto;html=1;" edge="1" parent="mvioNwK95yMqdUQ73LqQ-36" source="7Dm9HkWjK3gPopbyqvIh-31" target="7Dm9HkWjK3gPopbyqvIh-6">
          <mxGeometry relative="1" as="geometry" />
        </mxCell>
        <mxCell id="7Dm9HkWjK3gPopbyqvIh-31" value="" style="ellipse;whiteSpace=wrap;html=1;aspect=fixed;" vertex="1" parent="mvioNwK95yMqdUQ73LqQ-36">
          <mxGeometry x="310" y="525" width="20" height="20" as="geometry" />
        </mxCell>
        <mxCell id="7Dm9HkWjK3gPopbyqvIh-46" style="edgeStyle=orthogonalEdgeStyle;rounded=0;orthogonalLoop=1;jettySize=auto;html=1;entryX=0;entryY=0.5;entryDx=0;entryDy=0;" edge="1" parent="mvioNwK95yMqdUQ73LqQ-36" source="7Dm9HkWjK3gPopbyqvIh-34" target="7Dm9HkWjK3gPopbyqvIh-30">
          <mxGeometry relative="1" as="geometry">
            <Array as="points">
              <mxPoint x="168" y="830" />
            </Array>
          </mxGeometry>
        </mxCell>
        <mxCell id="7Dm9HkWjK3gPopbyqvIh-34" value="j++" style="rounded=0;whiteSpace=wrap;html=1;" vertex="1" parent="mvioNwK95yMqdUQ73LqQ-36">
          <mxGeometry x="143" y="930" width="50" height="30" as="geometry" />
        </mxCell>
        <mxCell id="7Dm9HkWjK3gPopbyqvIh-42" style="edgeStyle=orthogonalEdgeStyle;rounded=0;orthogonalLoop=1;jettySize=auto;html=1;" edge="1" parent="mvioNwK95yMqdUQ73LqQ-36" source="7Dm9HkWjK3gPopbyqvIh-39" target="7Dm9HkWjK3gPopbyqvIh-41">
          <mxGeometry relative="1" as="geometry" />
        </mxCell>
        <mxCell id="7Dm9HkWjK3gPopbyqvIh-43" style="edgeStyle=orthogonalEdgeStyle;rounded=0;orthogonalLoop=1;jettySize=auto;html=1;entryX=0;entryY=0.5;entryDx=0;entryDy=0;" edge="1" parent="mvioNwK95yMqdUQ73LqQ-36" source="7Dm9HkWjK3gPopbyqvIh-41" target="7Dm9HkWjK3gPopbyqvIh-9">
          <mxGeometry relative="1" as="geometry">
            <Array as="points">
              <mxPoint x="83" y="360" />
            </Array>
          </mxGeometry>
        </mxCell>
        <mxCell id="7Dm9HkWjK3gPopbyqvIh-41" value="i--" style="rounded=0;whiteSpace=wrap;html=1;" vertex="1" parent="mvioNwK95yMqdUQ73LqQ-36">
          <mxGeometry x="23" y="1360" width="120" height="60" as="geometry" />
        </mxCell>
        <mxCell id="7Dm9HkWjK3gPopbyqvIh-28" style="edgeStyle=orthogonalEdgeStyle;rounded=0;orthogonalLoop=1;jettySize=auto;html=1;entryX=0.5;entryY=0;entryDx=0;entryDy=0;" edge="1" parent="mvioNwK95yMqdUQ73LqQ-36" source="7Dm9HkWjK3gPopbyqvIh-19" target="7Dm9HkWjK3gPopbyqvIh-26">
          <mxGeometry relative="1" as="geometry" />
        </mxCell>
        <mxCell id="7Dm9HkWjK3gPopbyqvIh-19" value="primeCheck = false" style="rounded=0;whiteSpace=wrap;html=1;" vertex="1" parent="mvioNwK95yMqdUQ73LqQ-36">
          <mxGeometry x="390" y="1170" width="120" height="60" as="geometry" />
        </mxCell>
        <mxCell id="7Dm9HkWjK3gPopbyqvIh-38" style="edgeStyle=orthogonalEdgeStyle;rounded=0;orthogonalLoop=1;jettySize=auto;html=1;" edge="1" parent="mvioNwK95yMqdUQ73LqQ-36" source="7Dm9HkWjK3gPopbyqvIh-22">
          <mxGeometry relative="1" as="geometry">
            <mxPoint x="449" y="1660" as="targetPoint" />
          </mxGeometry>
        </mxCell>
        <mxCell id="7Dm9HkWjK3gPopbyqvIh-48" style="edgeStyle=orthogonalEdgeStyle;rounded=0;orthogonalLoop=1;jettySize=auto;html=1;" edge="1" parent="mvioNwK95yMqdUQ73LqQ-36" source="7Dm9HkWjK3gPopbyqvIh-22">
          <mxGeometry relative="1" as="geometry">
            <mxPoint x="310" y="1690" as="targetPoint" />
          </mxGeometry>
        </mxCell>
        <mxCell id="7Dm9HkWjK3gPopbyqvIh-22" value="primeCheck is true ?" style="rhombus;whiteSpace=wrap;html=1;" vertex="1" parent="mvioNwK95yMqdUQ73LqQ-36">
          <mxGeometry x="389" y="1450" width="120" height="120" as="geometry" />
        </mxCell>
        <mxCell id="7Dm9HkWjK3gPopbyqvIh-35" style="edgeStyle=orthogonalEdgeStyle;rounded=0;orthogonalLoop=1;jettySize=auto;html=1;" edge="1" parent="mvioNwK95yMqdUQ73LqQ-36" source="7Dm9HkWjK3gPopbyqvIh-56" target="7Dm9HkWjK3gPopbyqvIh-22">
          <mxGeometry relative="1" as="geometry" />
        </mxCell>
        <mxCell id="7Dm9HkWjK3gPopbyqvIh-26" value="break" style="rounded=0;whiteSpace=wrap;html=1;" vertex="1" parent="mvioNwK95yMqdUQ73LqQ-36">
          <mxGeometry x="390" y="1260" width="120" height="60" as="geometry" />
        </mxCell>
        <mxCell id="7Dm9HkWjK3gPopbyqvIh-36" value="Yes" style="text;html=1;align=center;verticalAlign=middle;resizable=0;points=[];autosize=1;strokeColor=none;fillColor=none;" vertex="1" parent="mvioNwK95yMqdUQ73LqQ-36">
          <mxGeometry x="389" y="1570" width="40" height="30" as="geometry" />
        </mxCell>
        <mxCell id="7Dm9HkWjK3gPopbyqvIh-39" value="Display i" style="shape=parallelogram;perimeter=parallelogramPerimeter;whiteSpace=wrap;html=1;fixedSize=1;" vertex="1" parent="mvioNwK95yMqdUQ73LqQ-36">
          <mxGeometry x="389" y="1660" width="120" height="60" as="geometry" />
        </mxCell>
        <mxCell id="7Dm9HkWjK3gPopbyqvIh-40" style="edgeStyle=orthogonalEdgeStyle;rounded=0;orthogonalLoop=1;jettySize=auto;html=1;exitX=0.5;exitY=1;exitDx=0;exitDy=0;entryX=0.417;entryY=1;entryDx=0;entryDy=0;entryPerimeter=0;" edge="1" parent="mvioNwK95yMqdUQ73LqQ-36" source="7Dm9HkWjK3gPopbyqvIh-39" target="7Dm9HkWjK3gPopbyqvIh-39">
          <mxGeometry relative="1" as="geometry" />
        </mxCell>
        <mxCell id="7Dm9HkWjK3gPopbyqvIh-49" value="No" style="text;html=1;align=center;verticalAlign=middle;resizable=0;points=[];autosize=1;strokeColor=none;fillColor=none;" vertex="1" parent="mvioNwK95yMqdUQ73LqQ-36">
          <mxGeometry x="350" y="1470" width="40" height="30" as="geometry" />
        </mxCell>
        <mxCell id="7Dm9HkWjK3gPopbyqvIh-20" value="Yes" style="text;html=1;align=center;verticalAlign=middle;resizable=0;points=[];autosize=1;strokeColor=none;fillColor=none;" vertex="1" parent="mvioNwK95yMqdUQ73LqQ-36">
          <mxGeometry x="345" y="1030" width="40" height="30" as="geometry" />
        </mxCell>
        <mxCell id="7Dm9HkWjK3gPopbyqvIh-52" value="No" style="text;html=1;align=center;verticalAlign=middle;resizable=0;points=[];autosize=1;strokeColor=none;fillColor=none;" vertex="1" parent="mvioNwK95yMqdUQ73LqQ-36">
          <mxGeometry x="270" y="1098" width="40" height="30" as="geometry" />
        </mxCell>
        <mxCell id="7Dm9HkWjK3gPopbyqvIh-53" value="&lt;font data-font-src=&quot;https://fonts.googleapis.com/css?family=Sarabun&quot; face=&quot;Sarabun&quot;&gt;End&lt;/font&gt;" style="ellipse;whiteSpace=wrap;html=1;" vertex="1" parent="mvioNwK95yMqdUQ73LqQ-36">
          <mxGeometry x="225" y="1920" width="130" height="30" as="geometry" />
        </mxCell>
        <mxCell id="7Dm9HkWjK3gPopbyqvIh-56" value="" style="ellipse;whiteSpace=wrap;html=1;aspect=fixed;" vertex="1" parent="mvioNwK95yMqdUQ73LqQ-36">
          <mxGeometry x="435" y="1370" width="30" height="30" as="geometry" />
        </mxCell>
        <mxCell id="7Dm9HkWjK3gPopbyqvIh-57" value="" style="edgeStyle=orthogonalEdgeStyle;rounded=0;orthogonalLoop=1;jettySize=auto;html=1;" edge="1" parent="mvioNwK95yMqdUQ73LqQ-36" source="7Dm9HkWjK3gPopbyqvIh-26" target="7Dm9HkWjK3gPopbyqvIh-56">
          <mxGeometry relative="1" as="geometry">
            <mxPoint x="-290" y="1380" as="sourcePoint" />
            <mxPoint x="-291" y="1510" as="targetPoint" />
          </mxGeometry>
        </mxCell>
        <mxCell id="7Dm9HkWjK3gPopbyqvIh-59" value="Yes" style="text;html=1;align=center;verticalAlign=middle;resizable=0;points=[];autosize=1;strokeColor=none;fillColor=none;" vertex="1" parent="mvioNwK95yMqdUQ73LqQ-36">
          <mxGeometry x="275" y="960" width="40" height="30" as="geometry" />
        </mxCell>
        <mxCell id="7Dm9HkWjK3gPopbyqvIh-60" value="No" style="text;html=1;align=center;verticalAlign=middle;resizable=0;points=[];autosize=1;strokeColor=none;fillColor=none;" vertex="1" parent="mvioNwK95yMqdUQ73LqQ-36">
          <mxGeometry x="349" y="860" width="40" height="30" as="geometry" />
        </mxCell>
      </root>
    </mxGraphModel>
  </diagram>
</mxfile>
